<?xml version="1.0" encoding="UTF-8"?>
<svg version="1.1" xmlns="http://www.w3.org/2000/svg" width="32" height="32">
<path d="M0 0 C2.72954402 4.28474933 2.25669872 8.66949482 2.1796875 13.63671875 C2.19515625 14.63445313 2.210625 15.6321875 2.2265625 16.66015625 C2.18807179 23.83867364 2.18807179 23.83867364 0 27.2734375 C-6.30338355 30.97694063 -15.09370362 29.78795905 -22.1640625 29.28125 C-25.39098932 28.31667948 -26.43092128 27.48345775 -28.3203125 24.63671875 C-28.91615051 20.96174115 -28.87791291 17.3519455 -28.8203125 13.63671875 C-28.83578125 12.63898437 -28.85125 11.64125 -28.8671875 10.61328125 C-28.82852346 3.40243839 -28.82852346 3.40243839 -26.5703125 0 C-19.97624132 -3.99536604 -6.56198786 -3.85544405 0 0 Z " fill="#2D40B7" transform="translate(29.3203125,2.36328125)"/>
<path d="M0 0 C3.41548327 0.98659077 4.75690728 1.94712847 6.83984375 4.8203125 C7.70212374 8.89094597 7.60889677 12.73541492 6.83984375 16.8203125 C5.04040907 19.34264145 3.57207241 20.22651245 0.83984375 21.8203125 C0.50984375 20.5003125 0.17984375 19.1803125 -0.16015625 17.8203125 C-1.15015625 18.1503125 -2.14015625 18.4803125 -3.16015625 18.8203125 C-3.82015625 18.1603125 -4.48015625 17.5003125 -5.16015625 16.8203125 C-7.15973989 16.77950467 -9.16060879 16.77776894 -11.16015625 16.8203125 C-12.16015625 15.8203125 -12.16015625 15.8203125 -12.34765625 12.9453125 C-12.16015625 9.8203125 -12.16015625 9.8203125 -10.16015625 6.8203125 C-11.48015625 6.4903125 -12.80015625 6.1603125 -14.16015625 5.8203125 C-10.3978019 -0.76380762 -7.30007594 -0.71804026 0 0 Z " fill="#303FA5" transform="translate(24.16015625,0.1796875)"/>
<path d="M0 0 C0.6104394 8.88528458 0.6104394 8.88528458 -1.4375 12.625 C-5.23657069 14.66352574 -8.77785621 14.32478029 -13 14 C-12.01 12.35 -11.02 10.7 -10 9 C-10.99 8.67 -11.98 8.34 -13 8 C-13 7.34 -13 6.68 -13 6 C-12.01 6 -11.02 6 -10 6 C-10.33 5.01 -10.66 4.02 -11 3 C-9.68 2.34 -8.36 1.68 -7 1 C-6.34 1.99 -5.68 2.98 -5 4 C-4.360625 3.34 -3.72125 2.68 -3.0625 2 C-1 0 -1 0 0 0 Z " fill="#79E8FF" transform="translate(31,17)"/>
<path d="M0 0 C2.97 1.98 2.97 1.98 6 4 C6.33 3.01 6.66 2.02 7 1 C8.32 1.66 9.64 2.32 11 3 C10.67 3.99 10.34 4.98 10 6 C10.99 6 11.98 6 13 6 C13 6.66 13 7.32 13 8 C12.01 8.66 11.02 9.32 10 10 C10.99 11.32 11.98 12.64 13 14 C5.12844037 14.60550459 5.12844037 14.60550459 1.4375 12.625 C-0.79015889 8.55710116 -0.31179274 4.53831648 0 0 Z " fill="#79E8FF" transform="translate(1,17)"/>
<path d="M0 0 C1.32 0 2.64 0 4 0 C4 0.99 4 1.98 4 3 C5.32 3.33 6.64 3.66 8 4 C6.35 5.98 4.7 7.96 3 10 C-0.36720387 8.60667426 -1.9859524 7.0210714 -4 4 C-2.68 3.67 -1.36 3.34 0 3 C0 2.01 0 1.02 0 0 Z " fill="#A80101" transform="translate(14,22)"/>
<path d="M0 0 C0.66 0.33 1.32 0.66 2 1 C2 1.99 2 2.98 2 4 C2.66 4 3.32 4 4 4 C4.33 5.65 4.66 7.3 5 9 C4.01 8.67 3.02 8.34 2 8 C1.67 9.32 1.34 10.64 1 12 C-0.98 10.35 -2.96 8.7 -5 7 C-3.70700306 4.11562221 -2.34058637 2.12780579 0 0 Z " fill="#880203" transform="translate(6,10)"/>
<path d="M0 0 C3.3 0 6.6 0 10 0 C11 4.75 11 4.75 11 7 C7.7 7 4.4 7 1 7 C0.67 4.69 0.34 2.38 0 0 Z " fill="#5270A2" transform="translate(10,16)"/>
<path d="M0 0 C1.98 1.65 3.96 3.3 6 5 C4.60667426 8.36720387 3.0210714 9.9859524 0 12 C-0.33 10.68 -0.66 9.36 -1 8 C-1.66 8 -2.32 8 -3 8 C-3 6.68 -3 5.36 -3 4 C-2.34 4 -1.68 4 -1 4 C-0.67 2.68 -0.34 1.36 0 0 Z " fill="#AC0000" transform="translate(25,10)"/>
<path d="M0 0 C3.36720387 1.39332574 4.9859524 2.9789286 7 6 C5.68 6.33 4.36 6.66 3 7 C3 7.66 3 8.32 3 9 C1.68 9 0.36 9 -1 9 C-1 8.34 -1 7.68 -1 7 C-2.32 6.67 -3.64 6.34 -5 6 C-3.35 4.02 -1.7 2.04 0 0 Z " fill="#C10000" transform="translate(15,0)"/>
<path d="M0 0 C1.98 0 3.96 0 6 0 C6 1.65 6 3.3 6 5 C4.34385343 5.38218767 2.67542976 5.71395102 1 6 C0 5 0 5 -0.0625 2.4375 C-0.041875 1.633125 -0.02125 0.82875 0 0 Z " fill="#5575AF" transform="translate(13,10)"/>
<path d="M0 0 C0.66 0.33 1.32 0.66 2 1 C2 1.99 2 2.98 2 4 C2.66 4 3.32 4 4 4 C4 4.66 4 5.32 4 6 C2.02 6.99 2.02 6.99 0 8 C-0.99 6.35 -1.98 4.7 -3 3 C-2.01 2.01 -1.02 1.02 0 0 Z " fill="#C90000" transform="translate(5,11)"/>
<path d="M0 0 C1.98 1.65 3.96 3.3 6 5 C5.67 5.66 5.34 6.32 5 7 C4.01 7 3.02 7 2 7 C1.67 7.66 1.34 8.32 1 9 C1.226875 8.236875 1.45375 7.47375 1.6875 6.6875 C1.790625 5.800625 1.89375 4.91375 2 4 C0.66621425 2.1645201 0.66621425 2.1645201 -1 1 C-0.67 0.67 -0.34 0.34 0 0 Z " fill="#8E0000" transform="translate(16,0)"/>
</svg>
